<svg width="128" height="128" viewBox="0 0 128 128" xmlns="http://www.w3.org/2000/svg">
<g clip-path="url(#clip0)">
<path d="M95.4047 12.5867H31.7522C28.6532 12.5867 26.1411 15.1001 26.1411 18.2007V105.656C26.1411 108.757 28.6532 111.27 31.7522 111.27H95.4047C98.5036 111.27 101.016 108.757 101.016 105.656V18.2007C101.016 15.1001 98.5036 12.5867 95.4047 12.5867Z" fill="white"/>
<path d="M63.5781 124.429C65.9952 124.429 67.9547 122.469 67.9547 120.051C67.9547 117.632 65.9952 115.672 63.5781 115.672C61.1609 115.672 59.2014 117.632 59.2014 120.051C59.2014 122.469 61.1609 124.429 63.5781 124.429Z" fill="white"/>
<path fill-rule="evenodd" clip-rule="evenodd" d="M18.6111 0H108.557C111.656 0 114.168 2.51349 114.168 5.61403V122.644C114.168 125.744 111.656 128.258 108.557 128.258H18.6111C15.5122 128.258 13 125.744 13 122.644V5.61403C13 2.51349 15.5122 0 18.6111 0ZM31.7522 12.5867H95.4047C98.5036 12.5867 101.016 15.1001 101.016 18.2007V105.656C101.016 108.757 98.5036 111.27 95.4047 111.27H31.7522C28.6532 111.27 26.1411 108.757 26.1411 105.656V18.2007C26.1411 15.1001 28.6532 12.5867 31.7522 12.5867ZM67.955 120.051C67.955 122.469 65.9955 124.43 63.5783 124.43C61.1612 124.43 59.2017 122.469 59.2017 120.051C59.2017 117.632 61.1612 115.672 63.5783 115.672C65.9955 115.672 67.955 117.632 67.955 120.051Z" />
<path d="M92.4083 57.6675H61.1656C60.4216 57.6675 59.708 57.3717 59.1819 56.8453C58.6556 56.3189 58.3601 55.6049 58.3601 54.8605C58.3601 54.116 58.6556 53.402 59.1819 52.8756C59.708 52.3492 60.4216 52.0534 61.1656 52.0534H92.4083C93.1524 52.0534 93.8659 52.3492 94.3921 52.8756C94.9182 53.402 95.2138 54.116 95.2138 54.8605C95.2138 55.6049 94.9182 56.3189 94.3921 56.8453C93.8659 57.3717 93.1524 57.6675 92.4083 57.6675Z" />
<path d="M92.4083 71.5339H61.1656C60.4216 71.5339 59.708 71.2382 59.1819 70.7117C58.6556 70.1853 58.3601 69.4714 58.3601 68.7269C58.3601 67.9824 58.6556 67.2684 59.1819 66.742C59.708 66.2157 60.4216 65.9199 61.1656 65.9199H92.4083C93.1524 65.9199 93.8659 66.2157 94.3921 66.742C94.9182 67.2684 95.2138 67.9824 95.2138 68.7269C95.2138 69.4714 94.9182 70.1853 94.3921 70.7117C93.8659 71.2382 93.1524 71.5339 92.4083 71.5339Z" />
<path d="M46.9244 72.3314H36.9928C35.6534 72.3314 34.3689 71.799 33.4219 70.8515C32.4748 69.904 31.9428 68.6188 31.9428 67.2787V56.3089C31.9428 54.969 32.4748 53.6838 33.4219 52.7363C34.3689 51.7887 35.6534 51.2563 36.9928 51.2563H46.9244C48.2638 51.2563 49.5482 51.7887 50.4953 52.7363C51.4424 53.6838 51.9744 54.969 51.9744 56.3089V67.2787C51.9744 68.6188 51.4424 69.904 50.4953 70.8515C49.5482 71.799 48.2638 72.3314 46.9244 72.3314ZM37.5539 66.7173H46.3633V56.8703H37.5539V66.7173Z" />
<path d="M92.4083 87.8038H61.1656C60.4216 87.8038 59.708 87.508 59.1819 86.9817C58.6556 86.4552 58.3601 85.7412 58.3601 84.9967C58.3601 84.2523 58.6556 83.5383 59.1819 83.0119C59.708 82.4855 60.4216 82.1897 61.1656 82.1897H92.4083C93.1524 82.1897 93.8659 82.4855 94.3921 83.0119C94.9182 83.5383 95.2138 84.2523 95.2138 84.9967C95.2138 85.7412 94.9182 86.4552 94.3921 86.9817C93.8659 87.508 93.1524 87.8038 92.4083 87.8038Z" />
<path d="M92.4083 101.67H61.1656C60.4216 101.67 59.708 101.375 59.1819 100.848C58.6556 100.322 58.3601 99.6077 58.3601 98.8632C58.3601 98.1188 58.6556 97.4048 59.1819 96.8784C59.708 96.3519 60.4216 96.0562 61.1656 96.0562H92.4083C93.1524 96.0562 93.8659 96.3519 94.3921 96.8784C94.9182 97.4048 95.2138 98.1188 95.2138 98.8632C95.2138 99.6077 94.9182 100.322 94.3921 100.848C93.8659 101.375 93.1524 101.67 92.4083 101.67Z" />
<path d="M46.9244 102.479H36.9928C35.6543 102.476 34.3716 101.942 33.4251 100.996C32.4787 100.049 31.9457 98.7652 31.9428 97.426V86.445C31.9457 85.1058 32.4787 83.8224 33.4251 82.8755C34.3716 81.9286 35.6543 81.3953 36.9928 81.3923H46.9244C48.2628 81.3953 49.5456 81.9286 50.492 82.8755C51.4385 83.8224 51.9714 85.1058 51.9744 86.445V97.426C51.9714 98.7652 51.4385 100.049 50.492 100.996C49.5456 101.942 48.2628 102.476 46.9244 102.479ZM37.5539 96.8646H46.3633V87.0064H37.5539V96.8646Z" />
<path d="M79.4464 27.2281L73.6669 23.6688V19.8962C73.67 19.818 73.6575 19.74 73.6305 19.6667C73.6033 19.5933 73.5619 19.526 73.5088 19.4687C73.4556 19.4113 73.3917 19.365 73.3206 19.3324C73.2496 19.2998 73.1728 19.2815 73.0946 19.2786H69.9412C69.7825 19.2845 69.6323 19.3525 69.5233 19.4679C69.4141 19.5835 69.3546 19.7373 69.3576 19.8962V21.019L64.8687 18.2456C64.6047 18.0802 64.2994 17.9927 63.9878 17.9927C63.6763 17.9927 63.371 18.0802 63.1068 18.2456L48.5179 27.2281C48.1392 27.4624 47.8685 27.8374 47.7655 28.2709C47.6625 28.7045 47.7353 29.1612 47.9681 29.5411C48.0831 29.7299 48.2343 29.8941 48.4129 30.0241C48.5917 30.1541 48.7944 30.2473 49.0094 30.2985C49.2243 30.3497 49.4473 30.3577 49.6653 30.3221C49.8835 30.2865 50.0923 30.208 50.2798 30.0912L52.1539 28.9684V42.2625C52.151 42.3406 52.1634 42.4187 52.1905 42.492C52.2177 42.5653 52.2591 42.6325 52.3122 42.6899C52.3654 42.7473 52.4293 42.7937 52.5004 42.8262C52.5714 42.8588 52.6482 42.8771 52.7263 42.88H75.2381C75.3969 42.8742 75.547 42.8061 75.6561 42.6907C75.7653 42.5752 75.8248 42.4213 75.8216 42.2625V28.946L77.6845 30.0688C77.9518 30.2308 78.2585 30.3163 78.5711 30.3158C78.9345 30.3114 79.2868 30.1895 79.5752 29.9682C79.8636 29.747 80.0727 29.4382 80.1712 29.0882C80.2698 28.7381 80.2524 28.3657 80.1217 28.0263C79.9911 27.687 79.7542 27.3991 79.4464 27.2056V27.2281Z" />
</g>
<defs>
<clipPath id="clip0">
<rect width="128" height="128" fill="white"/>
</clipPath>
</defs>
</svg>
