<svg width="49" height="62" viewBox="0 0 49 62" fill="none" xmlns="http://www.w3.org/2000/svg">
<g clip-path="url(#clip0)">
<path d="M46.3594 0H2.72222C1.21878 0 0 1.21747 0 2.7193V59.4058C0 60.9074 1.21878 62.1251 2.72222 62.1251H46.3594C47.8629 62.1251 49.0817 60.9074 49.0817 59.4058V2.7193C49.0817 1.21747 47.8629 0 46.3594 0Z" fill="black"/>
<path d="M39.9786 6.09668H9.09771C7.59423 6.09668 6.37549 7.31411 6.37549 8.81598V51.1772C6.37549 52.679 7.59423 53.8965 9.09771 53.8965H39.9786C41.482 53.8965 42.7008 52.679 42.7008 51.1772V8.81598C42.7008 7.31411 41.482 6.09668 39.9786 6.09668Z" fill="white"/>
<path d="M24.5379 60.2705C25.7106 60.2705 26.6612 59.321 26.6612 58.1495C26.6612 56.978 25.7106 56.0284 24.5379 56.0284C23.3652 56.0284 22.4146 56.978 22.4146 58.1495C22.4146 59.321 23.3652 60.2705 24.5379 60.2705Z" fill="white"/>
<path d="M38.5248 27.9327H23.3675C23.0065 27.9327 22.6603 27.7894 22.405 27.5345C22.1498 27.2794 22.0063 26.9336 22.0063 26.573C22.0063 26.2124 22.1498 25.8666 22.405 25.6116C22.6603 25.3566 23.0065 25.2134 23.3675 25.2134H38.5248C38.8858 25.2134 39.232 25.3566 39.4873 25.6116C39.7425 25.8666 39.8859 26.2124 39.8859 26.573C39.8859 26.9336 39.7425 27.2794 39.4873 27.5345C39.232 27.7894 38.8858 27.9327 38.5248 27.9327Z" fill="black"/>
<path d="M38.5248 34.6492H23.3675C23.0065 34.6492 22.6603 34.506 22.405 34.251C22.1498 33.996 22.0063 33.6502 22.0063 33.2896C22.0063 32.9289 22.1498 32.5831 22.405 32.3281C22.6603 32.0732 23.0065 31.9299 23.3675 31.9299H38.5248C38.8858 31.9299 39.232 32.0732 39.4873 32.3281C39.7425 32.5831 39.8859 32.9289 39.8859 33.2896C39.8859 33.6502 39.7425 33.996 39.4873 34.251C39.232 34.506 38.8858 34.6492 38.5248 34.6492Z" fill="black"/>
<path d="M16.4583 35.0355H11.6399C10.9901 35.0355 10.367 34.7777 9.90752 34.3187C9.44806 33.8597 9.18994 33.2372 9.18994 32.5881V27.2746C9.18994 26.6256 9.44806 26.0031 9.90752 25.5441C10.367 25.0852 10.9901 24.8273 11.6399 24.8273H16.4583C17.1081 24.8273 17.7312 25.0852 18.1907 25.5441C18.6502 26.0031 18.9083 26.6256 18.9083 27.2746V32.5881C18.9083 33.2372 18.6502 33.8597 18.1907 34.3187C17.7312 34.7777 17.1081 35.0355 16.4583 35.0355ZM11.9122 32.3162H16.1861V27.5466H11.9122V32.3162Z" fill="black"/>
<path d="M38.5248 42.53H23.3675C23.0065 42.53 22.6603 42.3867 22.405 42.1318C22.1498 41.8767 22.0063 41.5309 22.0063 41.1703C22.0063 40.8097 22.1498 40.4639 22.405 40.2089C22.6603 39.9539 23.0065 39.8107 23.3675 39.8107H38.5248C38.8858 39.8107 39.232 39.9539 39.4873 40.2089C39.7425 40.4639 39.8859 40.8097 39.8859 41.1703C39.8859 41.5309 39.7425 41.8767 39.4873 42.1318C39.232 42.3867 38.8858 42.53 38.5248 42.53Z" fill="black"/>
<path d="M38.5248 49.2465H23.3675C23.0065 49.2465 22.6603 49.1033 22.405 48.8483C22.1498 48.5933 22.0063 48.2475 22.0063 47.8869C22.0063 47.5263 22.1498 47.1805 22.405 46.9255C22.6603 46.6705 23.0065 46.5272 23.3675 46.5272H38.5248C38.8858 46.5272 39.232 46.6705 39.4873 46.9255C39.7425 47.1805 39.8859 47.5263 39.8859 47.8869C39.8859 48.2475 39.7425 48.5933 39.4873 48.8483C39.232 49.1033 38.8858 49.2465 38.5248 49.2465Z" fill="black"/>
<path d="M16.4583 49.6381H11.6399C10.9906 49.6367 10.3683 49.3784 9.9091 48.9197C9.44997 48.461 9.19136 47.8394 9.18994 47.1908V41.8718C9.19136 41.2231 9.44997 40.6015 9.9091 40.1428C10.3683 39.6842 10.9906 39.4259 11.6399 39.4244H16.4583C17.1076 39.4259 17.7299 39.6842 18.1891 40.1428C18.6482 40.6015 18.9068 41.2231 18.9083 41.8718V47.1908C18.9068 47.8394 18.6482 48.461 18.1891 48.9197C17.7299 49.3784 17.1076 49.6367 16.4583 49.6381ZM11.9122 46.9188H16.1861V42.1437H11.9122V46.9188Z" fill="black"/>
<path d="M32.2363 13.1886L29.4324 11.4646V9.63721C29.4339 9.59936 29.4279 9.56156 29.4148 9.52605C29.4016 9.49054 29.3815 9.4579 29.3557 9.43017C29.3299 9.40238 29.2989 9.37991 29.2644 9.36414C29.23 9.34837 29.1927 9.33951 29.1548 9.33809H27.6249C27.5479 9.34092 27.4751 9.37388 27.4221 9.42979C27.3692 9.48575 27.3403 9.56026 27.3418 9.63721V10.1811L25.164 8.83774C25.0359 8.75763 24.8878 8.71521 24.7366 8.71521C24.5855 8.71521 24.4374 8.75763 24.3092 8.83774L17.2314 13.1886C17.0477 13.3021 16.9164 13.4838 16.8664 13.6938C16.8164 13.9037 16.8518 14.125 16.9647 14.309C17.0205 14.4004 17.0938 14.48 17.1805 14.5429C17.2672 14.6059 17.3655 14.6511 17.4699 14.6759C17.5741 14.7007 17.6823 14.7045 17.7881 14.6873C17.8939 14.67 17.9952 14.632 18.0862 14.5755L18.9954 14.0316V20.4709C18.994 20.5088 19 20.5465 19.0132 20.5821C19.0264 20.6176 19.0465 20.6502 19.0722 20.6779C19.098 20.7057 19.1291 20.7282 19.1635 20.744C19.198 20.7597 19.2352 20.7686 19.2731 20.77H30.1947C30.2717 20.7672 30.3446 20.7342 30.3975 20.6783C30.4504 20.6224 30.4793 20.5479 30.4778 20.4709V14.0207L31.3816 14.5646C31.5112 14.6431 31.66 14.6845 31.8117 14.6842C31.988 14.6821 32.1589 14.623 32.2988 14.5159C32.4388 14.4087 32.5402 14.2592 32.588 14.0896C32.6358 13.9201 32.6274 13.7397 32.564 13.5752C32.5006 13.4109 32.3857 13.2714 32.2363 13.1777V13.1886Z" fill="black"/>
</g>
<defs>
<clipPath id="clip0">
<rect width="49" height="62" fill="white"/>
</clipPath>
</defs>
</svg>
